<?xml version="1.0" standalone="no"?>
<!DOCTYPE svg PUBLIC "-//W3C//DTD SVG 20010904//EN"
 "http://www.w3.org/TR/2001/REC-SVG-20010904/DTD/svg10.dtd">
<svg version="1.0" xmlns="http://www.w3.org/2000/svg"
 width="3778.000000pt" height="3778.000000pt" viewBox="0 0 3778.000000 3778.000000"
 preserveAspectRatio="xMidYMid meet">
<metadata>
Created by potrace 1.11, written by Peter Selinger 2001-2013
</metadata>
<g transform="translate(0.000000,3778.000000) scale(0.100000,-0.100000)"
fill="#000000" stroke="none">
<path d="M16070 28940 c0 -3 -17 -7 -37 -9 -54 -3 -93 -8 -133 -16 -19 -3 -51
-8 -70 -10 -20 -2 -94 -18 -165 -35 -72 -18 -134 -33 -140 -35 -5 -1 -17 -5
-26 -9 -9 -4 -20 -6 -25 -5 -5 1 -16 0 -24 -4 -29 -11 -89 -28 -116 -33 -15
-3 -34 -9 -43 -13 -9 -5 -19 -9 -23 -10 -14 -2 -21 -4 -93 -26 -33 -10 -60
-17 -60 -16 0 2 -25 -7 -55 -19 -30 -12 -56 -21 -57 -21 -2 1 -4 1 -5 0 -2 0
-10 -2 -19 -4 -8 -1 -56 -15 -105 -31 -49 -15 -91 -28 -94 -29 -3 0 -9 -3 -15
-6 -5 -4 -23 -10 -40 -14 -35 -10 -35 -10 -55 -18 -23 -9 -163 -57 -182 -61
-9 -3 -27 -10 -40 -17 -13 -7 -25 -12 -28 -12 -3 0 -15 -3 -28 -8 -13 -5 -26
-9 -30 -9 -7 0 -144 -51 -187 -69 -11 -5 -36 -14 -55 -21 -19 -7 -54 -21 -77
-31 -24 -11 -50 -19 -58 -19 -8 0 -15 -4 -15 -10 0 -5 -11 -10 -24 -10 -14 0
-27 -4 -31 -9 -6 -10 -105 -46 -117 -43 -5 1 -8 -2 -8 -7 0 -4 -21 -16 -47
-26 -27 -10 -73 -30 -103 -44 -30 -14 -57 -26 -60 -26 -3 0 -54 -25 -115 -54
-60 -30 -112 -55 -115 -56 -12 -3 -158 -78 -187 -96 -18 -12 -33 -17 -33 -12
0 4 -4 3 -8 -3 -7 -12 -70 -46 -75 -42 -1 2 -9 -3 -17 -10 -21 -18 -131 -82
-141 -82 -5 0 -9 -4 -9 -10 0 -5 -11 -12 -25 -16 -14 -3 -25 -10 -25 -14 0 -5
-8 -11 -19 -15 -10 -3 -29 -14 -41 -25 -12 -11 -26 -18 -29 -15 -4 2 -14 -5
-21 -16 -8 -10 -20 -19 -26 -19 -6 0 -23 -11 -38 -25 -14 -13 -28 -23 -30 -22
-3 2 -48 -29 -70 -48 -6 -6 -31 -26 -56 -45 -25 -19 -50 -42 -57 -50 -7 -8
-13 -12 -13 -8 0 4 -20 -12 -43 -35 -24 -23 -62 -59 -85 -79 -22 -20 -38 -38
-36 -41 2 -2 -7 -10 -21 -17 -14 -7 -25 -17 -25 -22 0 -5 -13 -23 -30 -41 -58
-63 -119 -145 -113 -151 4 -3 1 -6 -5 -6 -6 0 -26 -21 -44 -47 -18 -27 -36
-52 -40 -58 -29 -35 -98 -136 -98 -144 0 -5 -4 -11 -8 -13 -4 -1 -23 -25 -42
-53 -34 -48 -41 -57 -67 -89 -7 -8 -13 -18 -13 -21 0 -3 -7 -13 -15 -22 -9
-10 -32 -38 -51 -63 -19 -25 -41 -52 -47 -60 -7 -8 -20 -28 -30 -43 -21 -32
-44 -61 -69 -89 -10 -10 -18 -23 -18 -28 0 -6 -7 -13 -15 -16 -8 -4 -15 -10
-15 -16 0 -8 -55 -84 -71 -98 -3 -3 -25 -32 -49 -65 -24 -33 -52 -67 -62 -76
-10 -9 -18 -21 -18 -26 0 -6 -16 -27 -35 -47 -19 -21 -35 -40 -35 -43 0 -2
-27 -38 -60 -79 -33 -41 -60 -78 -60 -83 0 -5 -4 -11 -8 -13 -4 -1 -23 -23
-42 -48 -19 -25 -37 -47 -41 -50 -3 -3 -18 -23 -35 -45 -16 -21 -36 -47 -44
-55 -8 -9 -40 -49 -70 -88 -30 -40 -58 -72 -62 -72 -5 0 -8 -6 -8 -14 0 -8 -3
-16 -8 -18 -4 -1 -23 -23 -42 -48 -18 -25 -41 -53 -49 -62 -33 -35 -40 -46
-34 -52 4 -3 2 -6 -4 -6 -5 0 -34 -30 -64 -67 -30 -38 -58 -73 -64 -79 -5 -7
-26 -31 -45 -55 -19 -24 -43 -51 -52 -61 -10 -10 -16 -18 -13 -18 2 0 -6 -11
-18 -23 -12 -13 -35 -41 -52 -62 -36 -46 -84 -102 -107 -127 -10 -10 -18 -20
-18 -23 0 -3 -13 -20 -29 -38 -56 -62 -71 -80 -71 -89 0 -5 -4 -7 -9 -3 -5 3
-12 -4 -16 -15 -3 -11 -10 -20 -15 -20 -5 0 -12 -9 -15 -20 -4 -11 -11 -18
-16 -15 -5 4 -9 3 -9 -2 0 -18 -144 -176 -320 -353 -137 -137 -243 -222 -279
-224 -16 0 -91 32 -101 44 -3 3 -34 26 -70 51 -36 24 -71 49 -78 56 -7 7 -26
20 -42 30 -17 9 -30 21 -30 25 0 4 -7 8 -15 8 -8 0 -15 3 -15 8 0 4 -18 18
-40 32 -22 14 -40 28 -40 32 0 5 -7 8 -16 8 -8 0 -12 5 -9 10 3 6 0 10 -7 10
-8 0 -28 14 -46 30 -18 17 -36 30 -39 30 -3 0 -14 10 -24 22 -11 11 -19 17
-19 13 0 -4 -11 4 -25 19 -13 14 -29 26 -35 26 -5 0 -10 5 -10 10 0 6 -4 10
-9 10 -10 0 -23 11 -146 123 -33 30 -75 68 -93 83 -18 16 -52 47 -76 69 -23
22 -47 42 -52 45 -13 6 -44 31 -71 57 -13 12 -23 20 -23 17 0 -3 -7 1 -15 8
-76 69 -307 201 -374 214 -17 4 -31 9 -31 13 0 6 -10 7 -122 13 -37 2 -70 7
-74 10 -4 4 -14 4 -23 -1 -9 -4 -34 -8 -56 -9 -22 -1 -65 -7 -95 -13 -30 -6
-62 -13 -70 -14 -8 -2 -15 -4 -15 -5 0 -1 -9 -3 -20 -5 -11 -2 -51 -19 -90
-38 -54 -27 -85 -51 -135 -107 -36 -40 -70 -78 -76 -84 -6 -6 -16 -22 -23 -34
-7 -12 -16 -20 -20 -17 -5 3 -11 -2 -14 -10 -4 -9 -14 -12 -29 -9 -54 12 -74
16 -90 17 -10 1 -18 4 -18 7 0 3 -13 6 -28 7 -15 1 -41 5 -57 8 -17 4 -43 9
-60 12 -16 2 -37 7 -45 10 -8 4 -28 8 -45 10 -16 2 -37 6 -45 10 -8 3 -32 7
-54 9 -21 2 -43 7 -49 11 -7 4 -18 8 -27 9 -32 5 -50 10 -56 16 -3 4 -12 4
-18 2 -7 -3 -19 2 -26 11 -7 8 -18 15 -24 15 -6 1 -22 15 -36 31 -98 120 -330
349 -439 435 -13 10 -32 27 -43 37 -10 9 -22 17 -27 17 -5 0 -11 3 -13 8 -14
32 -274 144 -403 173 -91 21 -263 30 -282 16 -7 -5 -13 -6 -13 -3 0 4 -13 -2
-30 -14 -16 -12 -30 -19 -30 -15 0 6 -8 0 -54 -40 -16 -14 -32 -25 -35 -25
-13 0 -144 -136 -168 -172 -13 -21 -28 -38 -33 -38 -6 0 -9 -3 -8 -7 2 -8 -23
-64 -32 -73 -3 -3 -12 -18 -20 -35 -10 -19 -29 -34 -50 -42 -60 -20 -242 -2
-395 39 -22 6 -44 11 -50 12 -5 1 -14 4 -20 7 -5 4 -34 12 -62 19 -32 7 -50
16 -46 23 3 5 2 7 -4 4 -5 -3 -20 0 -34 7 -13 7 -28 14 -34 15 -22 7 -92 45
-130 72 -22 15 -94 81 -160 146 -67 66 -157 147 -200 181 -44 34 -85 67 -92
72 -7 6 -17 10 -23 10 -6 0 -13 7 -16 15 -4 8 -14 15 -24 15 -10 0 -25 6 -32
13 -14 13 -85 49 -106 53 -8 1 -21 6 -30 10 -22 9 -39 13 -82 18 -19 2 -39 5
-45 7 -5 1 -28 -1 -49 -6 -22 -4 -47 -8 -55 -9 -25 -2 -111 -38 -111 -46 0 -4
-11 -10 -23 -14 -34 -8 -149 -124 -178 -178 -6 -13 -15 -25 -18 -28 -12 -9
-80 -169 -86 -200 -3 -16 -40 -78 -57 -93 -16 -16 -39 -19 -155 -21 -117 -2
-175 2 -292 19 -49 7 -130 43 -152 67 -9 10 -21 18 -28 18 -6 0 -11 4 -11 9 0
13 -138 150 -144 143 -3 -3 -6 2 -6 11 0 10 -7 17 -15 17 -8 0 -15 3 -15 8 0
4 -17 18 -37 32 -20 14 -49 36 -63 48 -53 47 -163 107 -215 117 -31 6 -115 17
-150 19 -11 1 -26 5 -32 9 -7 5 -13 4 -13 -2 0 -7 -8 -7 -25 -1 -16 6 -25 6
-25 0 0 -6 -4 -9 -8 -7 -14 3 -112 -73 -112 -88 0 -3 -12 -23 -26 -44 -14 -22
-26 -46 -28 -53 -7 -51 -116 -91 -116 -43 0 7 -7 15 -15 19 -8 3 -14 9 -13 13
4 13 -48 86 -99 140 -12 13 -20 23 -18 23 8 0 -44 48 -77 71 -18 13 -35 26
-38 29 -3 3 -23 15 -45 25 -45 22 -140 28 -188 13 -18 -5 -38 -10 -44 -11 -7
0 -13 -4 -13 -8 0 -4 -10 -11 -22 -15 -13 -4 -23 -6 -23 -4 0 1 -21 -18 -47
-42 -27 -24 -48 -48 -48 -52 0 -4 -9 -16 -20 -28 -10 -12 -17 -24 -15 -28 3
-5 -1 -10 -9 -13 -12 -5 -58 -110 -72 -162 -10 -41 -16 -73 -16 -87 1 -10 -3
-18 -7 -18 -9 0 -10 -23 -11 -170 -1 -96 3 -155 10 -155 1 0 3 -15 6 -34 2
-19 9 -39 14 -46 5 -7 7 -14 4 -18 -3 -3 0 -16 7 -29 7 -12 12 -27 11 -32 -2
-4 2 -14 8 -20 5 -7 7 -16 3 -19 -3 -4 -1 -7 5 -7 7 0 11 -3 10 -7 -3 -12 58
-131 73 -143 3 -3 13 -18 22 -35 13 -26 30 -47 95 -120 57 -64 207 -185 229
-185 7 0 13 -5 13 -12 0 -6 3 -8 7 -5 3 4 12 2 20 -4 7 -6 13 -8 13 -4 0 4 6
3 13 -2 11 -9 87 -30 132 -37 41 -6 89 -83 96 -153 0 -5 5 -14 11 -20 6 -7 8
-13 5 -13 -4 0 0 -18 8 -40 8 -22 12 -40 10 -40 -2 0 2 -15 10 -34 8 -18 11
-36 8 -40 -4 -3 -2 -6 3 -6 5 0 10 -14 11 -32 1 -17 6 -34 10 -37 5 -3 9 -17
11 -31 2 -14 8 -41 15 -60 6 -19 12 -39 13 -45 1 -5 15 -50 32 -100 16 -49 42
-130 58 -180 16 -49 32 -92 36 -93 5 -2 6 -7 3 -11 -2 -5 5 -32 16 -62 46
-121 57 -158 51 -165 -4 -4 -1 -4 6 0 8 5 12 -1 12 -18 0 -13 7 -31 15 -39 8
-8 12 -17 9 -19 -4 -5 48 -149 80 -222 14 -32 27 -67 28 -76 0 -3 5 -14 11
-25 6 -11 10 -23 9 -27 -1 -5 3 -8 10 -8 6 0 9 -3 6 -6 -4 -3 0 -17 7 -31 8
-15 12 -30 9 -35 -3 -4 0 -8 6 -8 6 0 8 -4 5 -10 -3 -5 -1 -10 4 -10 6 0 11
-9 11 -19 0 -11 5 -23 10 -26 6 -4 8 -11 5 -16 -4 -5 -1 -9 5 -9 6 0 9 -4 5
-9 -3 -5 0 -15 7 -23 7 -7 14 -20 16 -29 1 -9 16 -45 33 -80 40 -82 53 -112
51 -121 -1 -5 3 -8 9 -8 5 0 8 -4 4 -9 -3 -5 2 -16 10 -25 9 -8 16 -19 15 -23
0 -18 12 -43 21 -43 6 0 7 -5 4 -10 -4 -6 -1 -17 5 -25 7 -8 9 -15 4 -15 -5 0
-1 -5 9 -11 9 -5 17 -15 17 -22 0 -17 141 -301 154 -309 6 -4 7 -8 3 -8 -4 0
7 -26 24 -57 18 -32 45 -83 62 -113 16 -30 34 -61 40 -67 5 -7 7 -13 3 -13 -3
0 8 -23 24 -50 17 -28 30 -55 30 -60 0 -6 5 -10 12 -10 6 0 8 -3 5 -7 -4 -3 5
-21 19 -40 14 -18 22 -33 19 -33 -3 0 10 -25 30 -55 19 -31 35 -60 35 -65 0
-6 5 -10 10 -10 6 0 10 -7 10 -15 0 -9 5 -21 10 -28 14 -16 175 -283 196 -324
9 -18 21 -33 26 -33 5 0 6 -4 3 -10 -3 -5 -1 -10 4 -10 6 0 11 -4 11 -10 0 -9
37 -70 128 -210 20 -30 39 -57 42 -60 3 -3 14 -22 25 -42 11 -21 23 -38 27
-38 5 0 8 -5 8 -10 0 -11 95 -154 118 -178 6 -7 12 -17 12 -22 0 -5 6 -15 13
-22 7 -7 42 -57 77 -110 36 -54 68 -98 73 -98 4 0 5 -5 2 -10 -3 -6 1 -13 9
-16 9 -3 16 -12 16 -20 0 -8 5 -14 11 -14 5 0 8 -4 5 -9 -3 -5 1 -11 9 -15 8
-3 15 -12 15 -21 0 -8 3 -15 8 -15 4 0 23 -25 42 -55 19 -30 38 -55 43 -55 4
0 7 -7 7 -15 0 -8 5 -15 10 -15 6 0 10 -7 10 -16 0 -8 4 -13 8 -10 4 2 13 -8
20 -23 7 -15 21 -37 32 -49 11 -12 20 -24 20 -28 0 -4 8 -14 18 -23 9 -9 23
-28 31 -43 8 -16 18 -28 23 -28 4 0 8 -4 8 -10 0 -5 8 -19 18 -29 32 -36 42
-50 42 -60 0 -5 4 -11 8 -13 5 -1 25 -26 44 -55 20 -29 38 -49 42 -46 3 4 6 0
6 -8 0 -8 10 -26 23 -41 12 -14 30 -36 39 -47 10 -12 18 -25 18 -30 0 -4 12
-21 28 -37 15 -16 38 -45 52 -64 13 -19 29 -38 35 -42 5 -4 7 -8 3 -8 -5 0 0
-8 10 -18 32 -35 52 -62 52 -72 0 -6 4 -10 8 -10 5 0 28 -27 52 -60 24 -33 47
-60 52 -60 4 0 8 -5 8 -11 0 -6 12 -25 26 -43 14 -17 35 -44 47 -59 12 -15 32
-39 45 -52 12 -13 22 -28 22 -32 0 -5 10 -19 23 -33 13 -14 49 -60 81 -102 32
-43 62 -78 67 -78 5 0 8 -3 7 -7 -2 -5 5 -17 14 -28 132 -159 172 -205 180
-205 4 0 8 -4 8 -10 0 -13 367 -379 374 -372 3 3 6 -3 6 -13 0 -10 2 -16 5
-13 3 3 28 -16 55 -43 27 -27 54 -49 60 -49 6 0 8 -4 5 -10 -3 -5 -2 -10 3
-10 6 0 23 -12 39 -27 17 -16 65 -59 108 -98 43 -38 84 -76 91 -82 7 -7 15
-13 17 -13 2 0 24 -18 48 -40 24 -22 59 -50 76 -63 18 -12 33 -27 33 -32 0 -6
9 -15 19 -20 17 -9 125 -95 195 -156 13 -12 28 -22 32 -23 5 0 19 -11 32 -23
13 -12 49 -41 80 -65 31 -24 66 -51 76 -60 11 -10 26 -18 33 -18 7 0 13 -4 13
-10 0 -5 7 -10 15 -10 8 0 15 -4 15 -10 0 -5 6 -10 13 -10 8 0 22 -9 32 -20
10 -11 22 -20 27 -20 5 0 29 -13 53 -30 24 -17 48 -30 54 -30 6 0 11 -4 11
-10 0 -5 5 -10 11 -10 6 0 30 -14 55 -30 24 -17 44 -27 44 -23 0 4 4 3 8 -2 7
-11 106 -75 182 -117 25 -14 65 -37 90 -52 25 -15 64 -36 87 -47 23 -11 45
-24 48 -29 4 -6 11 -8 16 -5 5 4 9 1 9 -4 0 -6 9 -11 19 -11 11 0 23 -5 26
-11 6 -8 41 -27 65 -34 3 -1 22 -9 44 -18 21 -9 44 -17 52 -17 7 0 16 -5 19
-10 4 -6 24 -8 46 -6 42 5 91 45 103 84 4 12 12 22 17 22 6 0 7 5 4 10 -3 6
-1 10 5 10 6 0 9 4 6 8 -3 5 1 20 8 33 25 49 40 129 24 129 -4 0 -8 7 -8 16 0
8 -14 27 -30 41 -17 13 -30 29 -30 34 0 5 -8 17 -17 27 -30 31 -61 69 -80 99
-20 31 -40 58 -63 82 -8 9 -21 29 -29 44 -8 15 -18 27 -23 27 -4 0 -8 6 -8 13
-1 6 -14 28 -30 47 -17 19 -30 40 -30 46 0 7 -7 15 -16 18 -8 3 -13 10 -10 15
4 5 2 11 -2 13 -12 4 -72 95 -72 107 0 6 -3 11 -8 11 -4 0 -16 17 -27 38 -11
20 -26 43 -33 50 -7 8 -10 18 -7 23 4 5 2 9 -3 9 -8 0 -146 263 -147 280 -1 3
-6 14 -11 25 -13 23 -28 76 -26 88 1 4 -2 7 -7 7 -8 0 -22 43 -23 67 0 5 -4
14 -10 21 -6 6 -7 12 -3 12 4 0 3 6 -3 13 -5 6 -13 28 -16 47 -3 19 -12 58
-19 87 -8 29 -10 58 -6 65 4 7 3 18 -3 26 -13 15 -14 205 -2 224 4 7 8 24 9
38 2 27 8 46 33 100 8 19 15 39 14 43 -1 4 5 10 13 13 8 4 15 12 15 18 0 21
112 126 175 164 33 19 63 40 66 45 3 5 10 8 15 8 5 -1 23 4 39 10 33 13 40 15
70 23 11 3 36 10 55 15 44 12 200 52 220 56 8 2 35 8 60 14 25 5 56 12 70 14
14 3 36 8 50 11 52 12 92 19 170 30 25 3 54 8 65 10 24 5 110 17 145 21 14 2
25 4 25 5 0 1 24 3 53 5 29 2 73 6 97 9 315 43 1044 49 1460 11 33 -3 88 -7
123 -8 34 -2 65 -7 68 -10 4 -4 15 -2 25 4 11 5 19 6 19 1 0 -5 15 -10 33 -11
103 -6 162 -10 162 -11 0 -4 120 -19 195 -26 14 -1 39 -4 55 -7 38 -7 119 -18
165 -22 19 -2 35 -4 35 -5 0 -2 13 -4 85 -14 25 -4 74 -11 110 -17 36 -6 76
-13 90 -14 14 -2 25 -4 25 -5 0 -1 14 -3 30 -5 17 -1 37 -5 45 -8 8 -3 36 -8
61 -12 25 -3 59 -8 75 -11 16 -3 38 -7 49 -8 11 -2 27 -6 35 -9 8 -3 31 -8 50
-11 54 -9 93 -16 120 -22 14 -3 36 -8 50 -10 55 -10 168 -34 181 -39 13 -4 49
-12 94 -19 11 -2 40 -8 65 -14 25 -6 59 -13 75 -16 17 -3 45 -10 63 -15 17 -5
32 -7 32 -4 0 3 6 1 13 -5 7 -6 33 -13 58 -14 24 -2 46 -6 49 -9 4 -5 89 -29
155 -44 27 -7 68 -16 80 -18 6 -2 16 -6 23 -10 6 -5 12 -6 12 -3 0 3 11 1 25
-4 14 -5 38 -12 53 -15 31 -7 55 -13 62 -15 3 -1 9 -2 13 -1 4 1 16 -3 25 -8
9 -5 31 -11 47 -14 17 -3 45 -10 63 -16 17 -5 32 -7 32 -3 0 3 5 1 12 -6 7 -7
21 -12 33 -12 12 0 26 -5 33 -12 7 -7 12 -9 12 -6 0 4 24 0 53 -9 28 -8 57
-16 62 -17 6 -1 33 -10 60 -19 28 -9 59 -18 70 -20 11 -2 27 -6 35 -10 16 -5
112 -31 120 -32 3 0 10 -3 16 -7 11 -7 67 -20 92 -21 6 0 12 -4 12 -9 0 -4 3
-7 8 -6 4 1 50 -12 102 -29 80 -26 137 -43 160 -47 3 -1 10 -4 15 -8 8 -5 40
-15 105 -33 3 -1 25 -8 50 -15 25 -7 48 -14 53 -16 4 -1 9 -3 12 -4 3 -1 10
-4 15 -5 6 -1 11 -3 13 -5 1 -1 9 -3 17 -5 8 -2 49 -15 90 -30 41 -15 82 -28
90 -30 8 -2 32 -11 53 -19 20 -9 37 -13 37 -10 0 4 6 1 13 -5 8 -6 22 -12 33
-14 10 -1 24 -5 29 -8 6 -4 28 -12 50 -19 22 -6 78 -25 125 -42 98 -34 108
-37 115 -38 3 0 18 -6 35 -15 16 -8 37 -17 47 -18 17 -4 26 -7 71 -24 9 -3 19
-7 22 -7 3 -1 10 -4 15 -7 10 -6 85 -33 95 -34 9 -1 106 -39 143 -56 13 -5 29
-11 37 -13 8 -2 26 -8 40 -13 14 -6 28 -9 33 -6 4 2 7 -1 7 -6 0 -6 8 -11 18
-11 10 0 22 -4 27 -8 6 -4 28 -14 50 -21 22 -7 50 -17 63 -22 12 -5 34 -14 50
-20 15 -6 35 -15 45 -21 10 -5 22 -6 27 -3 6 4 10 2 10 -3 0 -6 12 -13 27 -17
15 -3 45 -15 67 -26 22 -10 47 -19 56 -19 9 0 20 -4 25 -9 13 -11 108 -47 118
-43 4 1 7 -2 7 -8 0 -6 3 -9 8 -8 4 1 23 -5 42 -14 19 -8 53 -21 75 -29 22 -8
43 -18 46 -22 3 -5 10 -9 15 -9 20 -1 149 -53 262 -105 20 -10 39 -18 42 -19
3 0 23 -8 45 -18 51 -22 89 -39 95 -41 11 -4 63 -26 108 -46 26 -12 67 -30 92
-41 25 -11 65 -30 90 -41 25 -12 47 -21 50 -22 3 0 11 -4 18 -8 6 -5 12 -5 12
0 0 4 5 0 11 -10 6 -9 14 -15 19 -12 5 3 11 1 15 -5 3 -5 15 -10 26 -10 10 0
19 -4 19 -10 0 -5 6 -10 14 -10 8 0 39 -13 70 -29 31 -17 56 -28 56 -26 0 2
30 -12 68 -30 37 -19 72 -35 79 -35 6 0 13 -4 15 -9 2 -5 12 -11 23 -13 11 -1
22 -6 25 -9 3 -4 37 -21 75 -39 39 -18 106 -50 150 -71 45 -21 86 -39 93 -39
7 0 12 -3 12 -8 0 -8 91 -52 108 -52 6 0 12 -3 14 -7 2 -5 64 -37 138 -73 74
-36 137 -68 138 -72 2 -5 8 -8 14 -8 11 0 219 -100 228 -110 10 -10 95 -50
107 -50 6 0 13 -3 15 -8 2 -4 44 -27 93 -52 50 -25 92 -48 93 -52 2 -5 9 -8
15 -8 13 0 101 -43 121 -58 6 -5 22 -13 36 -17 14 -4 27 -11 30 -14 9 -13 170
-92 170 -84 0 4 5 0 11 -9 5 -10 17 -18 24 -18 8 0 15 -4 15 -10 0 -5 3 -9 8
-8 7 2 122 -52 132 -62 3 -3 24 -14 47 -25 24 -11 43 -24 43 -29 0 -4 6 -6 14
-3 8 3 16 2 18 -2 2 -5 39 -27 83 -51 44 -23 85 -46 92 -52 7 -5 19 -11 26
-12 8 -1 21 -7 28 -13 8 -6 50 -29 94 -53 44 -23 84 -46 89 -51 6 -5 18 -9 28
-9 10 0 18 -4 18 -9 0 -5 12 -14 28 -20 15 -5 52 -24 82 -41 134 -77 161 -90
175 -90 9 0 14 -3 12 -8 -3 -4 18 -18 46 -32 29 -14 54 -28 57 -31 3 -3 34
-21 70 -40 36 -18 67 -36 70 -39 3 -3 19 -12 35 -21 75 -38 140 -74 145 -79 3
-3 29 -16 57 -30 29 -14 53 -28 53 -32 0 -5 9 -8 19 -8 10 0 22 -7 25 -16 4
-9 9 -14 13 -11 3 4 18 -2 32 -12 29 -20 255 -149 376 -215 11 -6 23 -15 27
-21 4 -5 8 -7 8 -3 0 4 15 -3 33 -15 18 -12 55 -33 82 -47 28 -14 52 -28 53
-32 2 -5 10 -8 18 -8 8 0 14 -4 14 -10 0 -5 5 -10 10 -10 6 0 55 -27 110 -60
55 -33 104 -60 110 -60 5 0 10 -4 10 -8 0 -4 22 -19 50 -33 27 -13 50 -27 50
-31 0 -5 7 -8 15 -8 8 0 24 -8 35 -17 11 -10 23 -16 27 -15 3 2 9 0 12 -5 5
-8 97 -64 141 -86 8 -4 29 -16 45 -27 53 -35 90 -54 98 -52 4 1 7 -2 7 -7 0
-5 14 -14 30 -21 17 -7 30 -15 30 -19 0 -3 15 -12 33 -20 17 -8 34 -17 37 -21
10 -13 110 -69 110 -62 0 4 4 2 8 -3 9 -13 60 -46 68 -44 4 0 10 -4 13 -10 4
-6 29 -22 56 -36 28 -14 46 -25 40 -25 -11 0 44 -30 60 -33 5 -1 18 -10 29
-19 11 -10 26 -18 33 -18 7 0 13 -4 13 -10 0 -5 7 -10 15 -10 8 0 15 -4 15
-10 0 -5 5 -10 12 -10 6 0 25 -11 42 -23 17 -13 48 -32 69 -42 20 -9 37 -21
37 -26 0 -5 5 -9 11 -9 6 0 31 -13 56 -30 24 -16 46 -30 49 -30 3 0 32 -18 64
-40 32 -22 64 -40 69 -40 6 0 11 -4 11 -10 0 -5 7 -10 15 -10 8 0 15 -4 15 -8
0 -5 16 -14 35 -22 19 -8 35 -17 35 -22 0 -4 7 -8 15 -8 8 0 15 -4 15 -10 0
-5 7 -10 15 -10 8 0 15 -4 15 -10 0 -5 7 -10 15 -10 8 0 15 -4 15 -10 0 -5 6
-10 13 -10 7 0 28 -11 47 -25 18 -13 38 -22 44 -18 6 3 8 3 4 -2 -7 -7 96 -80
142 -102 8 -4 49 -30 90 -58 41 -27 87 -56 102 -64 15 -8 37 -22 47 -33 11
-10 25 -18 32 -18 10 0 25 -11 85 -60 7 -5 15 -6 18 -3 3 4 6 1 6 -5 0 -7 6
-12 14 -12 8 0 16 -3 18 -7 4 -9 95 -73 106 -74 4 0 27 -16 52 -34 25 -19 60
-42 78 -51 17 -9 32 -20 32 -25 0 -5 7 -9 15 -9 8 0 15 -4 15 -10 0 -5 6 -10
13 -10 7 0 22 -8 33 -17 10 -10 33 -25 49 -33 17 -8 36 -23 43 -33 7 -9 17
-15 22 -12 4 3 10 2 12 -2 5 -12 146 -103 158 -103 6 0 9 -4 6 -9 -3 -5 8 -14
24 -21 17 -7 30 -16 30 -21 0 -5 6 -9 13 -9 7 0 22 -8 33 -17 33 -29 83 -63
93 -63 5 0 11 -4 13 -8 2 -5 39 -33 83 -62 44 -29 82 -57 83 -62 2 -4 9 -8 15
-8 7 0 25 -11 41 -25 16 -13 37 -27 47 -30 11 -4 19 -11 19 -16 0 -5 7 -9 15
-9 8 0 15 -3 15 -7 0 -5 25 -24 55 -43 30 -19 55 -38 55 -42 0 -5 7 -8 15 -8
9 0 18 -7 21 -15 4 -8 11 -15 16 -15 6 0 28 -14 49 -31 21 -17 39 -28 39 -24
0 3 11 -6 25 -21 14 -15 25 -24 25 -20 0 4 6 1 14 -6 7 -7 24 -20 36 -28 12
-8 28 -21 36 -28 7 -6 17 -12 23 -12 5 0 15 -8 20 -17 6 -10 11 -15 11 -11 0
4 8 1 18 -6 52 -43 113 -86 122 -86 6 0 10 -4 10 -8 0 -4 13 -16 30 -25 16
-10 35 -23 42 -30 23 -22 318 -217 328 -217 5 0 10 -4 10 -10 0 -5 5 -10 11
-10 6 0 29 -13 52 -29 47 -33 217 -143 232 -151 23 -12 71 -45 77 -55 4 -5 8
-6 8 -2 0 4 12 -3 27 -17 15 -14 40 -30 55 -37 15 -6 28 -15 28 -20 0 -5 5 -9
10 -9 6 0 18 -8 28 -17 11 -10 32 -27 48 -38 59 -42 204 -166 204 -175 0 -6 4
-10 9 -10 15 0 112 -101 168 -176 29 -38 57 -74 63 -81 5 -7 10 -17 10 -23 0
-5 5 -10 10 -10 6 0 10 -6 10 -14 0 -7 7 -19 15 -26 8 -6 14 -15 13 -18 -1 -4
11 -34 26 -67 15 -32 28 -67 29 -77 1 -10 5 -18 10 -18 4 0 6 -4 2 -9 -3 -5
-1 -12 5 -16 6 -4 8 -11 5 -16 -4 -5 -3 -15 2 -21 4 -7 8 -21 9 -30 1 -10 3
-19 4 -20 1 -2 3 -24 4 -50 1 -26 5 -51 9 -54 3 -4 2 -15 -4 -25 -5 -11 -6
-19 -1 -19 5 0 8 -12 6 -27 -2 -16 -6 -53 -8 -83 -6 -62 -10 -86 -33 -188 -9
-39 -21 -72 -25 -72 -5 0 -8 -6 -7 -12 4 -19 -23 -102 -36 -110 -5 -4 -7 -8
-2 -8 4 0 1 -13 -8 -30 -9 -16 -13 -30 -9 -30 4 0 1 -6 -5 -13 -6 -8 -8 -17
-4 -20 3 -4 1 -7 -6 -7 -7 0 -10 -4 -7 -8 3 -5 -1 -20 -9 -35 -8 -15 -12 -27
-9 -27 3 0 -1 -10 -8 -22 -6 -13 -13 -29 -14 -36 -1 -8 -6 -21 -10 -30 -4 -9
-9 -26 -11 -36 -2 -11 -10 -39 -18 -64 -9 -24 -13 -47 -10 -52 3 -5 1 -11 -5
-15 -5 -3 -10 -21 -10 -40 0 -19 -4 -36 -8 -39 -6 -4 -9 -181 -2 -181 1 0 3
-14 4 -30 2 -33 30 -100 54 -127 8 -10 12 -18 8 -18 -4 0 8 -16 27 -35 36 -37
138 -95 167 -95 9 0 20 -4 26 -10 5 -5 23 -11 39 -14 17 -2 37 -6 45 -9 16 -6
72 -16 130 -22 19 -2 62 -7 95 -11 77 -9 481 -8 650 2 72 4 145 7 163 8 17 0
32 3 32 6 0 3 19 5 43 6 48 1 212 14 240 20 10 2 53 6 95 9 43 3 91 8 107 10
17 3 53 7 80 9 28 2 70 7 95 10 88 12 125 17 155 20 50 6 122 16 168 25 24 4
51 7 60 5 9 -1 17 1 17 4 0 4 12 7 28 7 15 1 48 4 75 8 26 4 68 10 95 13 51 7
77 12 77 14 0 1 20 3 45 5 25 2 59 6 75 9 48 8 118 18 145 21 14 1 44 5 67 9
23 4 57 9 75 11 18 3 49 7 68 9 19 3 53 8 76 11 22 3 54 8 70 11 34 6 77 12
158 19 33 4 63 8 67 10 4 3 35 8 69 11 58 6 95 11 95 14 0 0 25 3 55 6 96 8
117 11 130 19 9 6 11 4 5 -5 -5 -8 -4 -11 3 -6 10 6 37 10 147 21 28 3 77 8
110 11 33 4 74 7 91 8 16 2 34 5 40 7 5 3 26 5 47 4 20 0 37 2 37 5 0 3 21 5
48 4 26 0 51 2 56 5 5 2 39 6 75 8 36 2 73 6 81 9 8 3 42 7 75 9 33 2 76 7 95
10 33 6 119 15 183 18 15 1 27 4 27 7 0 3 17 6 38 6 46 1 184 16 267 30 17 3
48 7 70 10 22 2 52 7 68 9 15 3 42 7 60 10 17 3 39 9 47 12 8 3 24 7 35 9 11
1 31 5 45 8 14 4 41 9 60 12 19 3 53 10 75 16 22 5 47 11 55 13 77 14 106 18
113 17 4 -1 7 3 7 9 0 5 3 8 8 6 4 -3 93 15 197 39 105 25 199 46 210 48 11 2
21 5 23 6 1 1 11 4 22 5 11 1 21 3 23 5 1 1 10 3 20 6 9 2 25 6 35 8 9 3 18 5
20 6 1 2 5 3 10 4 11 3 125 36 140 41 7 3 14 5 17 5 3 0 21 6 40 14 19 8 35
13 35 11 0 -3 12 0 28 6 15 6 38 13 52 15 14 3 32 7 40 11 8 3 20 7 25 9 6 1
42 12 81 23 39 11 84 23 100 26 16 2 43 8 59 12 17 3 45 7 63 7 17 1 32 3 32
6 0 10 51 3 62 -8 7 -7 13 -33 15 -60 4 -76 9 -106 22 -130 10 -19 15 -21 34
-11 27 14 63 51 60 61 -2 5 0 8 5 8 4 0 13 12 19 28 21 46 42 112 37 112 -3 0
3 8 13 19 18 18 80 43 116 47 9 1 18 2 20 4 1 1 9 3 17 5 41 10 59 15 100 30
24 9 68 27 97 41 30 13 56 24 58 24 3 0 35 14 72 31 106 47 133 59 136 57 1
-1 16 5 32 15 17 9 62 31 100 48 80 36 154 69 240 109 33 15 71 31 85 35 13 4
30 14 38 21 7 8 18 12 23 9 5 -4 9 -1 9 6 0 7 3 10 6 6 4 -3 21 1 38 10 17 10
33 18 36 18 16 5 86 38 90 44 3 3 10 7 15 8 6 1 48 19 95 41 47 22 109 50 138
63 28 13 52 27 52 31 0 4 7 5 15 2 8 -4 15 -1 15 5 0 6 8 11 18 11 10 0 22 4
28 9 5 4 56 30 114 56 58 26 108 53 112 59 4 6 8 8 8 4 0 -7 181 79 190 91 3
3 26 17 53 31 26 13 47 28 47 31 0 4 14 12 30 19 17 7 30 16 30 21 0 15 58 10
74 -7 9 -8 16 -12 16 -7 0 4 5 0 11 -10 22 -38 127 -60 203 -43 39 9 86 34 86
46 0 6 3 9 8 8 4 -2 9 1 12 7 3 5 14 19 26 32 22 24 72 140 80 187 3 16 7 34
10 38 3 5 8 24 11 41 9 62 74 125 171 168 17 7 32 17 32 20 0 4 14 12 30 19
17 7 30 16 30 21 0 5 6 9 14 9 8 0 16 3 18 8 2 4 25 25 53 47 27 22 61 51 75
65 15 14 55 50 89 80 35 30 85 76 112 103 27 26 54 47 60 47 5 0 7 5 4 10 -3
6 -2 10 3 10 4 0 42 33 83 73 51 51 91 80 128 95 29 12 57 22 62 22 4 0 20 5
36 12 15 6 30 12 33 13 43 12 181 95 215 128 8 8 18 17 23 19 11 4 92 119 92
130 0 5 7 16 15 25 8 8 13 18 10 23 -3 4 2 10 10 14 8 3 15 15 15 26 0 11 5
20 12 20 6 0 8 3 5 7 -4 3 -3 11 2 17 15 17 51 118 46 127 -3 4 -1 9 4 11 5 1
14 27 19 56 7 41 6 56 -4 67 -19 19 -68 9 -131 -26 -29 -16 -53 -27 -53 -24 0
4 -7 0 -15 -9 -8 -8 -49 -34 -91 -58 -41 -24 -92 -53 -112 -65 -20 -13 -46
-27 -57 -33 -11 -6 -33 -19 -50 -29 -41 -26 -42 -26 -63 17 -43 84 -87 167
-93 172 -6 6 -19 37 -18 46 0 4 -4 10 -9 13 -9 6 -31 43 -75 127 -9 19 -22 34
-28 34 -5 0 -8 4 -4 9 3 5 -2 17 -11 25 -8 9 -13 16 -9 16 3 0 -3 13 -14 29
-12 16 -21 33 -21 38 0 5 -9 15 -20 23 -11 8 -20 19 -20 24 0 12 -10 19 -200
148 -91 61 -166 115 -168 120 -2 4 -10 8 -18 8 -8 0 -22 9 -31 20 -10 11 -23
20 -30 20 -7 0 -13 5 -13 10 0 6 -4 10 -9 10 -6 0 -21 11 -35 23 -26 24 -28
46 -6 86 6 12 8 21 4 21 -3 0 -2 6 4 13 9 11 41 118 47 157 1 8 5 23 9 32 4 9
8 22 10 30 1 7 5 19 9 25 5 7 6 13 3 13 -3 0 -1 12 5 27 6 16 13 39 15 53 3
14 9 49 15 78 6 30 12 70 14 90 2 21 4 42 5 47 1 6 2 12 0 15 -1 3 -3 22 -5
43 -3 43 -28 86 -50 88 -8 1 -21 2 -27 3 -23 3 -72 -16 -116 -45 -24 -16 -47
-29 -51 -29 -5 0 -11 -7 -15 -15 -3 -8 -13 -15 -21 -15 -9 0 -13 -4 -10 -10 3
-5 0 -10 -7 -10 -8 0 -20 -8 -29 -17 -8 -10 -30 -29 -49 -43 -19 -14 -42 -33
-52 -42 -10 -10 -18 -16 -18 -14 0 3 -17 -11 -37 -29 -21 -19 -42 -35 -46 -35
-5 0 -15 -7 -24 -16 -28 -27 -206 -139 -273 -171 -74 -36 -146 -57 -160 -48
-6 4 -22 9 -37 11 -15 3 -32 9 -38 13 -5 5 -28 14 -50 21 -22 7 -46 17 -52 23
-7 5 -13 7 -13 4 0 -3 -36 10 -81 29 -44 19 -87 34 -95 34 -9 0 -12 5 -8 12 4
7 3 8 -5 4 -6 -4 -23 0 -36 8 -14 9 -25 14 -25 11 0 -2 -26 7 -57 21 -32 14
-62 27 -68 28 -5 1 -27 10 -49 19 -21 9 -41 17 -43 17 -3 0 -31 11 -62 24 -31
14 -114 48 -186 76 -71 29 -143 57 -160 65 -16 7 -50 20 -75 30 -25 10 -65 27
-90 38 -25 11 -51 20 -57 20 -7 0 -13 4 -13 9 0 4 -3 7 -7 6 -5 -1 -42 12 -84
30 -102 42 -133 55 -139 57 -3 1 -23 9 -45 19 -22 10 -58 25 -80 33 -22 9 -44
20 -49 25 -6 4 -18 8 -28 8 -10 0 -18 4 -18 10 0 5 -4 9 -8 7 -5 -1 -37 13
-73 32 -108 56 -127 101 -133 321 -1 47 -5 91 -10 98 -4 7 -2 12 4 12 6 0 8 5
5 11 -4 6 -9 67 -11 137 -2 70 -6 144 -9 165 -3 20 -7 52 -9 70 -8 63 -77 175
-138 223 -33 26 -106 61 -140 68 -64 12 -356 5 -379 -9 -5 -4 -9 -1 -9 6 0 8
-4 8 -15 -1 -8 -7 -21 -10 -29 -7 -8 3 -17 3 -21 -1 -3 -4 -18 -7 -33 -8 -29
-2 -64 -8 -150 -25 -30 -6 -56 -8 -59 -5 -4 3 -11 1 -18 -4 -6 -5 -29 -12 -50
-16 -43 -6 -60 -10 -95 -18 -31 -7 -78 -16 -107 -21 -11 -2 -29 -6 -40 -9 -10
-3 -34 -8 -53 -12 -48 -8 -65 -12 -65 -15 0 -3 -47 -9 -80 -10 -29 0 -129 43
-120 53 3 3 -1 5 -9 5 -22 0 -76 24 -76 34 0 5 -3 8 -8 8 -15 -3 -72 23 -72
34 0 6 -3 8 -6 4 -4 -3 -25 3 -48 15 -22 11 -43 21 -46 21 -3 0 -22 11 -42 23
-21 13 -40 24 -43 24 -3 0 -85 39 -183 87 -97 48 -179 87 -182 86 -3 -1 -12 4
-20 10 -8 7 -67 37 -130 67 -63 30 -117 58 -118 63 -2 4 -8 5 -13 1 -5 -3 -9
-1 -9 5 0 5 -13 12 -30 16 -16 4 -30 11 -30 16 0 5 -5 9 -11 9 -6 0 -99 43
-205 95 -107 53 -197 96 -201 97 -5 0 -25 12 -45 25 -21 13 -38 20 -38 17 0
-4 -8 0 -17 9 -10 8 -22 16 -28 17 -5 1 -110 51 -232 111 -123 60 -227 109
-233 109 -5 0 -10 5 -10 12 0 6 -3 9 -6 5 -3 -3 -38 10 -77 29 -39 19 -77 34
-84 34 -7 0 -13 5 -13 12 0 6 -3 9 -6 5 -3 -3 -22 2 -42 12 -21 10 -67 33
-104 51 -38 19 -68 37 -68 42 0 5 -6 16 -12 23 -29 33 -43 50 -40 50 2 0 -16
43 -41 95 -64 135 -85 184 -93 214 -3 14 -10 26 -16 26 -5 0 -7 4 -4 9 3 5 -1
21 -9 37 -20 42 -38 86 -42 108 -2 10 -12 31 -23 46 -11 16 -20 31 -20 35 0
16 -82 124 -123 162 -55 51 -151 107 -192 111 -16 2 -36 9 -44 15 -12 9 -13 9
-7 -1 5 -9 1 -11 -16 -8 -13 3 -23 5 -23 6 0 0 -27 3 -60 6 -108 10 -130 12
-130 14 0 2 -96 11 -117 11 -10 0 -20 5 -23 10 -4 5 -11 7 -16 3 -5 -3 -16 0
-24 6 -8 7 -15 9 -15 5 0 -4 -7 -1 -17 6 -9 8 -19 13 -22 11 -7 -5 -20 31 -14
41 3 5 6 27 8 50 2 23 4 42 5 42 1 0 3 11 5 25 6 64 17 156 20 170 7 37 18
138 19 172 1 21 4 38 7 38 3 0 6 17 6 38 0 20 3 53 6 72 6 37 17 114 22 166 4
32 9 77 20 163 4 25 8 63 10 85 2 23 4 41 5 41 3 0 8 40 14 100 3 33 7 69 10
80 2 11 7 49 11 85 4 36 9 68 12 73 2 4 -2 7 -9 7 -9 0 -10 2 -2 8 7 4 15 34
18 67 4 33 8 74 11 90 2 17 6 51 7 77 2 27 5 48 8 48 3 0 6 15 6 33 2 39 12
152 14 152 2 0 7 38 14 105 3 30 5 55 6 55 2 0 7 44 14 120 3 22 5 40 6 40 3
0 9 58 14 140 2 39 7 77 10 86 4 8 8 35 11 60 2 24 4 44 5 44 1 0 4 25 6 55 7
76 11 115 14 115 1 0 3 25 5 55 2 30 4 55 5 55 1 0 3 11 5 25 1 14 6 54 10 90
3 36 8 81 10 100 2 19 4 35 5 35 1 0 4 36 8 80 10 128 5 395 -8 395 -3 0 -7
19 -8 43 -2 23 -5 56 -8 72 -2 17 -5 46 -8 65 -5 40 -14 92 -22 133 -7 34 -12
68 -19 121 -3 21 -8 43 -12 50 -4 6 -8 16 -9 21 -1 6 -5 25 -8 44 -4 19 -17
57 -30 85 -55 120 -70 151 -75 156 -4 3 -20 32 -36 64 -17 33 -37 67 -45 76
-8 9 -24 29 -35 44 -11 16 -28 37 -37 48 -10 10 -18 21 -18 24 0 3 -16 22 -35
42 -19 20 -38 45 -41 55 -3 9 -10 15 -15 12 -5 -4 -9 -1 -9 4 0 6 -9 21 -19
33 -11 13 -29 34 -40 47 -12 13 -21 28 -21 33 0 5 -4 6 -10 3 -5 -3 -10 -1
-10 5 0 6 -6 17 -12 24 -7 8 -38 41 -68 76 -30 34 -72 81 -92 104 -21 22 -38
44 -38 48 0 4 -8 9 -18 12 -9 3 -32 19 -49 35 -17 15 -47 38 -67 50 -20 13
-36 28 -36 33 0 6 -3 9 -6 5 -4 -3 -12 -1 -19 6 -7 7 -23 19 -35 27 -12 8 -28
21 -36 28 -7 6 -17 12 -23 12 -6 0 -11 5 -11 10 0 6 -7 10 -16 10 -8 0 -12 5
-9 10 3 6 1 10 -4 10 -6 0 -30 14 -54 30 -23 17 -51 37 -62 44 -11 8 -55 40
-98 70 -43 31 -83 56 -88 56 -5 0 -12 7 -15 15 -4 8 -13 15 -20 15 -8 0 -17 7
-20 15 -4 8 -13 15 -20 15 -8 0 -17 7 -20 15 -4 8 -12 15 -18 15 -7 0 -21 8
-32 18 -10 10 -26 21 -34 25 -8 4 -35 23 -60 42 -25 20 -53 38 -62 41 -10 4
-18 13 -18 21 0 8 -4 12 -8 9 -4 -2 -38 18 -75 45 -37 27 -70 49 -72 49 -6 0
-24 14 -56 43 -10 9 -19 14 -19 11 0 -3 -7 1 -15 8 -32 29 -45 38 -53 38 -4 0
-17 8 -28 18 -11 9 -42 33 -69 52 -28 19 -51 38 -53 42 -2 4 -8 8 -13 8 -10 0
-183 121 -187 132 -2 5 -9 8 -16 8 -7 0 -21 9 -31 20 -10 11 -24 20 -32 20 -7
0 -13 5 -13 10 0 6 -6 10 -14 10 -8 0 -16 4 -18 8 -1 5 -25 23 -53 42 -27 19
-54 38 -60 42 -5 5 -35 27 -66 51 -31 23 -71 53 -89 67 -18 14 -59 45 -90 70
-31 25 -69 54 -84 65 -15 11 -36 27 -46 35 -10 8 -28 22 -40 30 -12 8 -36 27
-53 42 -17 14 -35 24 -39 22 -4 -3 -8 1 -8 8 0 7 -20 26 -45 41 -25 16 -49 36
-54 45 -5 10 -13 16 -18 15 -9 -1 -63 39 -99 73 -13 12 -24 20 -26 18 -2 -2
-21 12 -43 31 -21 19 -41 35 -45 35 -3 0 -15 8 -26 18 -10 10 -35 29 -54 42
-43 30 -56 40 -81 63 -10 9 -23 17 -29 17 -5 0 -10 3 -10 8 0 4 -18 18 -40 32
-22 14 -40 28 -40 32 0 4 -8 9 -17 12 -10 3 -33 20 -50 36 -18 17 -33 29 -33
26 0 -6 -24 12 -68 52 -14 12 -31 22 -38 22 -8 0 -14 4 -14 9 0 4 -19 21 -42
37 -23 16 -53 39 -66 52 -14 12 -29 22 -34 22 -5 0 -20 11 -33 24 -14 14 -38
33 -55 42 -16 10 -30 22 -30 26 0 4 -6 8 -14 8 -8 0 -22 10 -30 22 -9 12 -16
18 -16 13 0 -6 -3 -6 -8 0 -4 6 -38 33 -77 60 -38 27 -77 55 -85 62 -53 42
-112 83 -120 83 -6 0 -10 4 -10 8 0 4 -12 15 -27 24 -16 9 -41 28 -58 42 -16
14 -33 26 -37 26 -4 0 -13 6 -20 13 -7 7 -29 24 -48 37 -19 13 -40 29 -47 35
-7 5 -20 17 -30 25 -10 8 -20 14 -23 13 -3 -1 -14 6 -25 15 -11 10 -43 33 -70
52 -28 19 -51 37 -53 42 -2 4 -8 8 -13 8 -7 0 -57 35 -119 83 -8 7 -27 18 -42
26 -15 8 -25 18 -22 23 3 5 2 8 -3 6 -12 -3 -83 42 -83 53 0 5 -6 9 -13 9 -8
0 -25 9 -38 20 -33 27 -34 28 -124 89 -44 30 -81 59 -83 63 -2 4 -9 8 -16 8
-7 0 -21 9 -31 20 -10 11 -22 20 -28 20 -8 0 -42 24 -87 62 -9 7 -28 20 -44
28 -15 8 -39 25 -53 37 -13 13 -28 21 -32 19 -4 -3 -14 4 -21 15 -8 10 -20 19
-27 19 -7 0 -13 5 -13 10 0 6 -7 10 -15 10 -8 0 -15 5 -15 10 0 6 -7 10 -15
10 -8 0 -15 4 -15 9 0 5 -8 11 -17 15 -15 5 -60 34 -98 63 -5 5 -44 30 -85 57
-41 28 -81 56 -87 65 -7 8 -13 11 -13 7 0 -8 -70 42 -82 59 -4 5 -8 7 -8 3 0
-6 -176 106 -207 132 -7 6 -24 15 -38 22 -14 6 -25 15 -25 20 0 4 -5 8 -10 8
-12 0 -134 81 -138 92 -2 5 -7 8 -12 8 -14 0 -110 62 -110 71 0 5 -3 8 -7 7
-7 -3 -82 39 -93 51 -9 10 -64 42 -82 48 -10 3 -18 9 -18 14 0 5 -7 9 -15 9
-8 0 -15 5 -15 12 0 6 -3 9 -6 5 -3 -3 -15 3 -27 14 -11 10 -27 19 -34 19 -7
0 -13 4 -13 9 0 5 -8 11 -17 15 -18 5 -53 26 -63 36 -8 8 -43 29 -70 42 -14 7
-27 15 -30 18 -3 4 -34 24 -70 46 -36 21 -67 42 -68 47 -2 4 -8 5 -13 1 -5 -3
-9 0 -9 5 0 6 -5 11 -10 11 -6 0 -29 12 -53 27 -57 36 -255 153 -289 170 -16
8 -28 19 -28 24 0 5 -3 8 -7 7 -9 -1 -46 13 -53 21 -8 10 -64 42 -82 48 -10 3
-18 9 -18 14 0 5 -6 9 -13 9 -7 0 -24 8 -37 17 -14 10 -31 18 -39 20 -8 1 -17
6 -20 11 -5 9 -21 18 -111 64 -14 7 -27 15 -30 18 -3 3 -23 14 -45 25 -102 53
-171 91 -177 100 -4 6 -8 7 -8 2 0 -4 -18 4 -40 18 -22 14 -44 25 -50 25 -5 0
-10 4 -10 10 0 5 -3 9 -7 8 -13 -4 -73 24 -73 33 0 5 -6 9 -12 9 -7 0 -42 16
-78 34 -89 47 -171 86 -181 86 -5 0 -9 5 -9 10 0 6 -7 10 -15 10 -8 0 -44 15
-79 34 -35 19 -67 32 -70 28 -3 -3 -6 0 -6 6 0 7 -5 12 -12 12 -6 0 -38 13
-72 29 -34 15 -71 31 -83 35 -13 4 -23 12 -23 17 0 5 -3 8 -7 7 -10 -2 -47 12
-123 45 -43 19 -93 40 -100 42 -31 8 -50 18 -50 26 0 6 -4 8 -9 5 -5 -3 -24 0
-42 8 -19 7 -43 17 -54 21 -11 4 -24 9 -30 10 -5 2 -44 15 -86 29 -43 14 -85
27 -95 29 -11 2 -31 9 -47 15 -15 7 -38 14 -50 16 -22 5 -31 7 -102 26 -22 6
-49 13 -60 15 -88 20 -122 28 -135 33 -8 2 -31 7 -50 9 -19 2 -37 7 -40 11 -3
4 -15 7 -27 6 -13 -1 -23 2 -23 6 0 3 -8 6 -17 6 -38 -1 -123 17 -123 26 0 5
-3 7 -7 5 -8 -5 -115 12 -243 37 -14 3 -38 7 -55 9 -16 3 -46 8 -65 11 -19 3
-51 8 -70 10 -19 3 -46 7 -60 10 -14 2 -47 7 -75 11 -27 3 -66 8 -85 12 -19 3
-48 7 -65 8 -16 2 -30 4 -30 5 0 1 -18 3 -40 4 -22 2 -64 6 -92 10 -134 16
-160 19 -195 20 -21 0 -38 4 -38 9 0 4 -8 4 -17 -2 -10 -5 -26 -5 -39 -1 -24
10 -734 9 -734 0z m-15640 -3287 c0 -6 8 -14 18 -17 9 -3 26 -18 37 -32 11
-15 32 -41 48 -58 36 -40 113 -157 148 -223 37 -69 26 -78 -73 -60 -14 3 -35
10 -45 15 -42 21 -183 -2 -183 -30 0 -5 -4 -6 -10 -3 -5 3 -10 -1 -10 -10 0
-9 -4 -13 -10 -10 -5 3 -10 2 -10 -4 0 -5 -12 -28 -27 -50 -20 -31 -29 -38
-35 -27 -15 26 -23 111 -21 231 1 122 6 168 25 214 6 14 12 31 13 36 2 16 34
81 35 71 0 -6 5 -5 11 1 9 9 21 6 50 -10 22 -12 39 -27 39 -34z m2761 -78 c34
-1 139 -56 174 -91 8 -9 15 -12 15 -8 0 4 8 -3 19 -14 10 -12 21 -19 25 -15 3
3 6 1 6 -5 0 -7 6 -12 14 -12 8 0 16 -7 20 -15 3 -8 12 -15 20 -15 8 0 16 -3
18 -8 2 -4 23 -23 48 -42 25 -18 69 -57 98 -86 54 -53 56 -71 4 -60 -15 3 -48
7 -74 8 -27 1 -48 4 -48 7 0 3 -17 6 -38 7 -51 1 -249 24 -332 39 -19 4 -47 8
-62 10 -15 2 -38 7 -50 11 -13 4 -30 8 -38 9 -53 6 -157 44 -163 59 -6 14 30
76 44 76 5 0 9 5 9 10 0 9 22 32 66 69 35 29 163 81 179 72 5 -3 26 -6 46 -6z
m-1786 -70 c11 -2 20 -4 20 -5 0 -1 8 -3 17 -5 20 -4 127 -55 146 -70 8 -5 25
-20 38 -32 14 -13 28 -23 32 -24 16 -1 121 -134 113 -142 -24 -24 -400 -31
-447 -8 -103 48 -138 77 -164 134 -22 47 -17 66 23 105 53 50 127 66 222 47z
m3965 -315 c0 -3 10 -6 23 -7 39 -3 83 -12 112 -23 15 -6 30 -8 33 -5 3 2 12
-1 20 -7 7 -7 24 -14 35 -15 42 -6 222 -102 260 -137 48 -47 49 -67 3 -56 -19
4 -37 5 -40 2 -4 -3 -6 -1 -6 5 0 6 -9 9 -20 6 -11 -3 -28 -2 -37 2 -10 4 -36
9 -58 10 -22 2 -52 6 -67 9 -46 10 -71 14 -123 21 -69 9 -114 16 -139 21 -11
3 -41 7 -66 11 -25 3 -47 9 -48 14 -2 5 -8 7 -12 4 -11 -7 -212 26 -223 36
-37 30 71 95 174 105 35 3 65 7 66 8 4 4 113 0 113 -4z m-4920 -270 c0 -3 20
-16 45 -28 25 -12 45 -26 45 -32 0 -5 7 -10 15 -10 8 0 20 -9 27 -20 7 -11 18
-20 24 -20 6 0 17 -6 24 -14 6 -8 18 -12 26 -9 15 6 15 6 19 -99 3 -74 -2 -80
-45 -51 -50 34 -194 188 -228 244 -29 48 -28 50 13 47 19 -1 35 -5 35 -8z
m7255 -244 c22 -4 72 -19 110 -33 39 -14 80 -27 93 -30 12 -3 22 -9 22 -14 0
-5 7 -9 15 -9 8 0 15 -4 15 -10 0 -5 6 -10 14 -10 21 0 89 -40 131 -77 7 -7
17 -13 21 -13 11 0 44 -32 44 -43 0 -5 -8 -6 -17 -2 -10 4 -29 9 -43 10 -14 2
-26 4 -27 5 -3 3 -7 4 -48 14 -16 4 -37 10 -45 13 -8 3 -20 7 -26 8 -6 2 -38
11 -70 20 -33 9 -70 19 -83 22 -13 2 -39 10 -59 18 -19 8 -43 15 -53 15 -11 0
-19 4 -19 9 0 5 -9 7 -20 4 -12 -3 -20 0 -20 8 0 7 -3 10 -6 6 -3 -3 -27 1
-52 9 -26 8 -56 17 -67 19 -11 3 -21 9 -23 14 -2 6 -9 8 -16 5 -7 -3 -25 2
-41 10 l-28 15 24 5 c100 24 185 27 274 12z m20910 -7461 c22 -3 42 -10 43
-15 2 -6 8 -10 13 -10 12 0 49 -32 49 -43 0 -5 6 -15 13 -22 30 -34 39 -48 86
-144 28 -55 51 -107 51 -116 0 -8 5 -15 10 -15 6 0 10 -8 10 -18 0 -10 4 -22
10 -28 5 -5 11 -18 13 -29 2 -11 9 -31 14 -45 6 -14 10 -26 8 -28 -3 -3 -83
25 -124 44 -18 9 -39 17 -45 19 -6 1 -24 7 -41 14 -16 6 -66 26 -110 43 -44
17 -84 35 -89 40 -6 4 -16 8 -23 8 -7 0 -32 8 -56 19 -23 10 -88 38 -144 61
-57 23 -104 45 -104 49 -5 23 -4 61 2 61 3 0 5 11 4 24 -2 13 3 36 10 49 7 14
11 28 8 30 -2 3 12 11 31 18 20 7 36 16 36 20 0 4 8 6 18 4 9 -1 22 2 29 7 7
5 16 8 20 5 4 -2 16 -1 26 2 21 8 172 5 232 -4z m4430 -2146 c28 -16 60 -45
112 -103 36 -40 55 -97 58 -173 2 -39 6 -76 9 -81 4 -6 2 -13 -3 -17 -7 -4 -7
-15 -1 -30 5 -14 6 -25 2 -25 -4 0 -6 -20 -5 -44 2 -44 1 -45 -23 -34 -13 6
-24 15 -24 20 0 4 -7 8 -15 8 -8 0 -24 9 -35 20 -11 11 -23 20 -27 19 -10 0
-116 63 -124 74 -3 5 -10 9 -15 9 -5 1 -25 11 -44 23 -51 33 -189 114 -232
138 -21 11 -38 24 -38 29 0 4 -5 8 -12 8 -14 0 -151 81 -156 92 -2 5 -10 8
-18 8 -39 0 16 27 71 35 6 1 20 4 32 9 24 8 41 11 99 20 21 4 40 8 42 10 2 3
74 4 160 3 125 -2 163 -5 187 -18z m3176 -1425 c17 -20 17 -167 0 -187 -6 -8
-11 -19 -10 -23 2 -16 -13 -54 -22 -54 -5 0 -9 -9 -9 -19 0 -27 -30 -34 -66
-17 -24 12 -66 30 -94 41 -59 23 -90 41 -90 53 0 25 143 156 206 190 70 37 68
36 85 16z"/>
</g>
</svg>
